<svg xmlns="http://www.w3.org/2000/svg" fill="none" height="25" width="145">
  <path fill="#ffffff" d="M9.8 25c5.3 0 9-2.7 9-7.4 0-5-4-6.3-7.8-7.4-3.8-1.2-4.4-2-4.4-3s.9-1.8 2.6-1.8c2.3 0 3.4 1 4.3 2.7l4.7-2.7a9.5 9.5 0 00-9-5.4C5 0 1 2.7 1 7.3s3.6 6.3 7.2 7.3c3.7 1 5 1.6 5 3 0 1-.6 2-3.2 2a5.1 5.1 0 01-5.2-3.3L0 19.1C1.4 22.6 4.6 25 9.8 25zM27.5.5v24h5.6V.5zM59 12c1.8 1 3 3 3 5.4 0 4.2-3.5 7-8 7H43.9V.5h9.6C57.6.5 61 3.2 61 7.3a6 6 0 01-2.1 4.8zm-5.6-6.5h-4V10h4a2 2 0 002.1-2.1 2 2 0 00-2.1-2.2zm.7 13.8c1.4 0 2.3-1 2.3-2.3 0-1.4-1-2.3-2.3-2.3h-4.7v4.6zM79.9.4c6.8 0 12 5.3 12 12.1s-5.2 12-12 12h-9.8V.5zm0 18.8c3.9 0 6.5-2.6 6.5-6.7S83.8 5.8 80 5.8h-4.2v13.4zm24.1 0V15h8.8V9.8H104v-4h9.7V.5H98.4v24h15.4v-5.3zm25 5.3h7.2l8-24H138l-5.4 17.7L127.2.5h-6.1z" clip-rule="evenodd" fill-rule="evenodd"></path>
</svg>
